<svg width="279" height="250" viewBox="0 0 279 250" fill="none" xmlns="http://www.w3.org/2000/svg">
<g clip-path="url(#clip0_1_52)">
<path d="M241.43 36.31C193.43 -10.36 116.17 -10.18 68.38 36.71C56.23 48.63 47.07 62.43 40.89 77.18C37.38 85.56 42.14 95.12 50.94 97.43L89.09 107.47C91.6 108.13 94.22 106.76 95.07 104.31C98.39 94.69 104.08 85.71 112.17 78.28C136.84 55.62 175.48 56.22 199.47 79.6C224.89 104.37 225.09 145.07 200.07 170.09C175.25 194.91 135 194.92 110.17 170.09C88.18 148.1 59.99 136.12 31.23 134.11C30.47 134.06 29.7 134.01 28.94 133.97C28.68 133.96 28.43 133.94 28.17 133.93C23.74 133.73 19.29 133.77 14.86 134.05C5.40001 134.64 -1.39999 143.38 0.250006 152.71C2.64001 166.23 6.76001 179.15 12.37 191.24C13.31 193.27 15.41 194.48 17.64 194.31C35.51 192.92 53.86 199.06 67.53 212.73C115.9 261.1 194.33 261.1 242.71 212.73C291.5 163.94 291.08 84.56 241.44 36.3L241.43 36.31Z" fill="#F25930"/>
</g>
<defs>
<clipPath id="clip0_1_52">
<rect width="279" height="249" fill="white" transform="translate(0 0.5)"/>
</clipPath>
</defs>
</svg>
